HIERARCHY
ROOT root     
{
	OFFSET 0.0000 0.0000 0.0000
	CHANNELS 6 Xposition Yposition Zposition Zrotation Yrotation Xrotation
	JOINT pelvis   
	{
		OFFSET 0.0000 0.0000 0.0000
		CHANNELS 3 Zrotation Yrotation Xrotation
		JOINT thorax   
		{
			OFFSET 0.0000 23.0750 -5.0000
			CHANNELS 3 Zrotation Yrotation Xrotation
			JOINT rclavicle
			{
				OFFSET 0.0000 28.0009 0.0000
				CHANNELS 3 Zrotation Yrotation Xrotation
				JOINT rhumerus 
				{
					OFFSET -18.5725 5.5939 0.0000
					CHANNELS 3 Zrotation Yrotation Xrotation
					JOINT rradius  
					{
						OFFSET -24.8459 0.0000 0.0000
						CHANNELS 3 Zrotation Yrotation Xrotation
						JOINT rhand    
						{
							OFFSET -24.5477 0.0000 0.0000
							CHANNELS 3 Zrotation Yrotation Xrotation
							End Site
							{
								OFFSET -8.1826 0.0000 0.0000
							}
						}
					}
				}
			}
			JOINT lclavicle
			{
				OFFSET 0.0000 28.0009 0.0000
				CHANNELS 3 Zrotation Yrotation Xrotation
				JOINT lhumerus 
				{
					OFFSET 18.5725 5.5939 0.0000
					CHANNELS 3 Zrotation Yrotation Xrotation
					JOINT lradius  
					{
						OFFSET 24.8459 0.0000 0.0000
						CHANNELS 3 Zrotation Yrotation Xrotation
						JOINT lhand    
						{
							OFFSET 24.5477 0.0000 0.0000
							CHANNELS 3 Zrotation Yrotation Xrotation
							End Site
							{
								OFFSET 8.1826 0.0000 0.0000
							}
						}
					}
				}
			}
			JOINT head     
			{
				OFFSET 0.0000 35.2030 0.0000
				CHANNELS 3 Zrotation Yrotation Xrotation
				End Site
				{
					OFFSET 0.0000 11.7343 0.0000
				}
			}
		}
		JOINT rfemur   
		{
			OFFSET -8.2817 0.0000 0.0000
			CHANNELS 3 Zrotation Yrotation Xrotation
			JOINT rtibia   
			{
				OFFSET 0.0000 -43.3627 0.0000
				CHANNELS 3 Zrotation Yrotation Xrotation
				JOINT rfoot    
				{
					OFFSET 0.0000 -38.2947 0.0000
					CHANNELS 3 Zrotation Yrotation Xrotation
					JOINT rtoes    
					{
						OFFSET 0.0000 0.0000 16.6054
						CHANNELS 3 Zrotation Yrotation Xrotation
						End Site
						{
							OFFSET 0.0000 0.0000 5.5351
						}
					}
				}
			}
		}
		JOINT lfemur   
		{
			OFFSET 8.2817 0.0000 0.0000
			CHANNELS 3 Zrotation Yrotation Xrotation
			JOINT ltibia   
			{
				OFFSET 0.0000 -43.3627 0.0000
				CHANNELS 3 Zrotation Yrotation Xrotation
				JOINT lfoot    
				{
					OFFSET 0.0000 -38.2947 0.0000
					CHANNELS 3 Zrotation Yrotation Xrotation
					JOINT ltoes    
					{
						OFFSET 0.0000 0.0000 16.6054
						CHANNELS 3 Zrotation Yrotation Xrotation
						End Site
						{
							OFFSET 0.0000 0.0000 5.5351
						}
					}
				}
			}
		}
	}
}
MOTION
Frames: 7
Frame Time: .0333333
27.118 80.102 9.2274 174.656 -79.9266 -138.031 0 -0 0 -0.372384 -12.458 17.329 22.9726 -15.9911 -0.000211983 51.7596 -6.88257 21.6718 -180 64.0709 -180 -18.8045 6.21043 -1.02938 -11.9767 8.94027 -9.61267e-06 -54.6415 11.472 7.53256 180 -49.1945 -180 12.3182 -4.50737 -0.486669 8.74728 6.36947 -25.6965 4.19367 -16.2086 -66.5189 -0 -0 43.9426 -1.23607e-07 1.30069 4.90723 0.111299 -1.1042e-07 -69.0985 -21.2797 19.2742 -67.2103 -0 -0 49.185 3.5557e-05 15.1254 -7.75536 -2.08894 1.18071e-05 -36.0893 
27.128 80.024 9.2234 174.44 -80.0407 -137.876 0 -0 0 -0.430604 -12.2682 17.4013 23.0355 -15.903 -0.000173928 51.885 -6.88873 21.5211 -180 64.6954 -180 -18.867 6.22331 -1.03504 -11.9793 8.96293 -8.72381e-06 -54.7429 11.3085 7.69708 -180 -49.2452 180 12.3416 -4.52037 -0.488981 8.8748 6.39074 -25.7279 4.24806 -16.3426 -66.6142 -0 -0 44.2487 -2.51105e-06 1.30255 4.72781 0.107399 -1.82178e-07 -69.1652 -21.1576 19.1335 -67.2409 -0 -0 49.4321 -3.9645e-05 15.2084 -7.83475 -2.12217 1.35305e-05 -36.1018 
27.136 79.944 9.2139 174.223 -80.1647 -137.733 0 -0 0 -0.486072 -12.0577 17.4801 23.0963 -15.7961 -0.000159519 52.0205 -6.89048 21.3534 -180 65.3776 -180 -18.943 6.22533 -1.03962 -11.9912 8.98716 2.17612e-05 -54.8566 11.1451 7.87281 180 -49.2983 180 12.3661 -4.53634 -0.491695 8.99309 6.41526 -25.7539 4.30973 -16.4854 -66.7017 -0 -0 44.5669 1.78191e-06 1.30155 4.53704 0.102999 1.35929e-07 -69.2356 -21.0231 18.9913 -67.2642 -0 -0 49.6868 1.04796e-05 15.2844 -7.91448 -2.15496 4.28756e-06 -36.1224 
27.142 79.861 9.199 174.002 -80.311 -137.591 0 -0 0 -0.534478 -11.8286 17.5633 23.1551 -15.6679 -1.58944e-05 52.166 -6.88749 21.1624 -180 66.1127 -180 -19.0275 6.21602 -1.04268 -12.0157 9.01313 -1.3156e-05 -54.9838 10.9831 8.05935 180 -49.3539 -180 12.3906 -4.55481 -0.494714 9.09629 6.44329 -25.7763 4.37879 -16.6381 -66.7772 -0 -0 44.8925 4.70565e-07 1.29641 4.33563 0.0980013 3.67495e-07 -69.3078 -20.8753 18.8483 -67.2779 -0 -0 49.9455 -1.61967e-07 15.3548 -7.99373 -2.18688 3.64974e-06 -36.1521 
27.146 79.778 9.1784 173.769 -80.4746 -137.454 0 -0 0 -0.571071 -11.5814 17.6518 23.2098 -15.5184 0.000137289 52.3194 -6.88036 20.9442 -180 66.8892 -180 -19.1147 6.19505 -1.0441 -12.055 9.04323 2.70206e-05 -55.1219 10.819 8.25631 180 -49.4154 180 12.4152 -4.57386 -0.49779 9.17926 6.47453 -25.7963 4.45627 -16.8026 -66.8383 -0 -0 45.226 -1.1336e-06 1.28646 4.12449 0.0925016 3.86918e-07 -69.3803 -20.7121 18.7034 -67.2801 -0 -0 50.2097 -3.15872e-05 15.417 -8.07268 -2.21761 1.23441e-05 -36.1873 
27.146 79.694 9.1518 173.527 -80.6694 -137.316 0 -0 0 -0.592699 -11.3185 17.7475 23.2625 -15.3464 -0.000104389 52.4842 -6.86953 20.6957 -180 67.7034 -180 -19.1992 6.16269 -1.04333 -12.1132 9.07871 -1.4487e-05 -55.2709 10.6516 8.46398 180 -49.4825 -180 12.4408 -4.59245 -0.500783 9.23846 6.50904 -25.8129 4.54194 -16.979 -66.881 -0 -0 45.5637 2.08237e-06 1.27056 3.90476 0.0864996 4.41922e-07 -69.4512 -20.5327 18.5559 -67.2683 -0 -0 50.4747 8.85546e-06 15.4687 -8.15042 -2.24681 7.72863e-06 -36.2306 
27.143 79.609 9.1192 173.281 -80.8833 -137.19 0 -0 0 -0.597256 -11.0382 17.8471 23.3119 -15.1493 -8.11168e-05 52.6562 -6.85571 20.4129 -180 68.5411 -180 -19.2809 6.11884 -1.04033 -12.1877 9.1178 -4.11547e-06 -55.4352 10.4846 8.68323 180 -49.5556 -180 12.4664 -4.61104 -0.503906 9.27398 6.54556 -25.8278 4.63599 -17.1699 -66.9068 -0 -0 45.9069 1.151e-06 1.24663 3.67759 0.0800008 -3.99352e-07 -69.5192 -20.3358 18.4024 -67.2425 -0 -0 50.7379 2.38513e-05 15.5112 -8.22605 -2.27418 -1.2895e-05 -36.283 
